# xmcd
#
# Track frame offsets:
#  150
#  12419
#  24784
#  36167
#  43881
#  53629
#  65577
#  75648
#  86181
#  97429
#  107905
#  119543
#  130096
#  141552
#  152132
#  164090
#  175520
#  186132
#  197100
#  207874
#  217304
#  228576
#  239871
#  251000
#  262391
#  271815
#  285265
#  295957
#  304045
#  316081
#  329498
#  340977
#
# Disc length: 4699 seconds
#
# Revision: 0
# Processed by: cddbd v1.5.2PL0 Copyright (c) Steve Scherf et al.
# Submitted via: AltoMP3_Maker 3.0
#
DISCID=f9125920
DTITLE=Various Artist - King Hillbilly, Vol. 4
DYEAR=1900
DGENRE=
TTITLE0=Boots Woodall - Rattle Snakin' Daddy
TTITLE1=Joe Wheeler - Shut My Mouth Wide Open
TTITLE2=Tommy Scott - Gonna Paint the Town Red
TTITLE3=Jimmy Thomason - Honey Baby
TTITLE4=Louie Innis - There's a Red Hot Fire in the Old Locomotive
TTITLE5=Floyd Robinson - G-I-R-L Girls
TTITLE6=Luke McDaniel - I Can't Go
TTITLE7=Charlie Gore - Who's Been Draggin' Your Little Red Wagon
TTITLE8=Lattie Moore - I'm Gonna Tell You Something
TTITLE9=Jimmie Osborne - It Just Tears Me All to Pieces
TTITLE10=Cowboy Copas - Texas Red
TTITLE11=The York Brothers - Gravy Train
TTITLE12=Moon Mullican - Grandpa Stole My Baby
TTITLE13=Jack Cardwell - Day Done Broke Too Soon Thhis Morning
TTITLE14=Billy Hughes - Cocaine Blues
TTITLE15=Bob Newman - Give You a Dose of Your Own Medicine
TTITLE16=Wayne Raney - Adam Come and Get Your Rib
TTITLE17=Redd Stewart - Brother Drop Dead (Boogie)
TTITLE18=Luke McDaniel - Money Bag Woman
TTITLE19=Tommy Scott - Just A-Diggin' and A-Diggin'
TTITLE20=Jimmie Osborne - Tissue Paper Heart
TTITLE21=Joe Wheeler - Do I Love Her, Deed I Do
TTITLE22=Moon Mullican - A Thousand and One Sleepless Nights
TTITLE23=Lattie Moore - 100,000 Women Can't Be Wrong
TTITLE24=Louie Innis - Let's Make Up Tonight Honey
TTITLE25=Hawkshaw Hawkins - Pan American
TTITLE26=Zeb Turner - Hung Down My Head and Cried
TTITLE27=Ray Baker - Preach the Word
TTITLE28=Wade Mainer - The Girl I Left in Sunny Tennessee
TTITLE29=Delmore Brothers - Gotta Have Some Lovin'
TTITLE30=Bob and Wanda Wayne - Home Made Wine
TTITLE31=Mattie O'Neil and Salty Holmes - Stuck with Love
EXTD=
EXTT0=
EXTT1=
EXTT2=
EXTT3=
EXTT4=
EXTT5=
EXTT6=
EXTT7=
EXTT8=
EXTT9=
EXTT10=
EXTT11=
EXTT12=
EXTT13=
EXTT14=
EXTT15=
EXTT16=
EXTT17=
EXTT18=
EXTT19=
EXTT20=
EXTT21=
EXTT22=
EXTT23=
EXTT24=
EXTT25=
EXTT26=
EXTT27=
EXTT28=
EXTT29=
EXTT30=
EXTT31=
PLAYORDER=
